<svg width="24" height="24" viewBox="0 0 24 24" fill="none" xmlns="http://www.w3.org/2000/svg">
<g id="Iconly/Bold/Folder">
<g id="Folder">
<path id="Folder_2" fill-rule="evenodd" clip-rule="evenodd" d="M13.4497 4.88026H16.5197C20.2097 4.88026 22.0097 6.85026 21.9997 10.8903V15.7603C21.9997 19.6203 19.6197 22.0003 15.7497 22.0003H8.23967C4.38967 22.0003 1.99967 19.6203 1.99967 15.7503V8.24026C1.99967 4.10026 3.83967 2.00026 7.46967 2.00026H9.04967C9.98067 1.99026 10.8497 2.42026 11.4197 3.15026L12.2997 4.32026C12.5797 4.67026 12.9997 4.88026 13.4497 4.88026ZM7.36971 15.2902H16.6297C17.0397 15.2902 17.3697 14.9502 17.3697 14.5402C17.3697 14.1202 17.0397 13.7902 16.6297 13.7902H7.36971C6.94971 13.7902 6.61971 14.1202 6.61971 14.5402C6.61971 14.9502 6.94971 15.2902 7.36971 15.2902Z" fill="#8E7EFC"/>
</g>
</g>
</svg>
