<svg width="28" height="28" viewBox="0 0 28 28" fill="none" xmlns="http://www.w3.org/2000/svg">
<g id="Iconly/Bold/Search">
<g id="Search">
<path id="Search_2" fill-rule="evenodd" clip-rule="evenodd" d="M2.33331 12.4482C2.33331 6.86191 6.81371 2.33331 12.3406 2.33331C14.9946 2.33331 17.54 3.39899 19.4167 5.2959C21.2935 7.19282 22.3478 9.76558 22.3478 12.4482C22.3478 18.0345 17.8674 22.5631 12.3406 22.5631C6.81371 22.5631 2.33331 18.0345 2.33331 12.4482ZM22.1822 20.5966L25.1627 23.0024H25.2144C25.8174 23.6119 25.8174 24.6001 25.2144 25.2095C24.6114 25.819 23.6338 25.819 23.0308 25.2095L20.5575 22.3748C20.3236 22.1393 20.1922 21.8194 20.1922 21.4857C20.1922 21.1521 20.3236 20.8321 20.5575 20.5966C21.0084 20.1487 21.7313 20.1487 22.1822 20.5966Z" fill="#00A198"/>
</g>
</g>
</svg>
