<svg width="24" height="24" viewBox="0 0 24 24" fill="none" xmlns="http://www.w3.org/2000/svg">
<g id="Iconly/Bold/Search">
<g id="Search">
<path id="Search_2" fill-rule="evenodd" clip-rule="evenodd" d="M1.99977 10.67C1.99977 5.88172 5.84011 2.00006 10.5774 2.00006C12.8523 2.00006 15.0341 2.9135 16.6427 4.53942C18.2513 6.16535 19.155 8.37058 19.155 10.67C19.155 15.4583 15.3147 19.3399 10.5774 19.3399C5.84011 19.3399 1.99977 15.4583 1.99977 10.67ZM19.0131 17.6543L21.5678 19.7165H21.6121C22.129 20.2389 22.129 21.0858 21.6121 21.6082C21.0953 22.1306 20.2573 22.1306 19.7405 21.6082L17.6205 19.1785C17.4201 18.9766 17.3074 18.7024 17.3074 18.4164C17.3074 18.1304 17.4201 17.8562 17.6205 17.6543C18.007 17.2704 18.6266 17.2704 19.0131 17.6543Z" fill="#6E9CFD"/>
</g>
</g>
</svg>
