<svg width="28" height="28" viewBox="0 0 28 28" fill="none" xmlns="http://www.w3.org/2000/svg">
<g id="Iconly/Bold/3 User">
<g id="3 User">
<path id="3 Friends" fill-rule="evenodd" clip-rule="evenodd" d="M18.8514 9.6052C18.8514 12.3465 16.666 14.5446 13.9405 14.5446C11.2151 14.5446 9.02969 12.3465 9.02969 9.6052C9.02969 6.86285 11.2151 4.66687 13.9405 4.66687C16.666 4.66687 18.8514 6.86285 18.8514 9.6052ZM13.9405 23.3335C9.93745 23.3335 6.51939 22.6989 6.51939 20.1604C6.51939 17.6208 9.91551 16.9631 13.9405 16.9631C17.9435 16.9631 21.3616 17.5977 21.3616 20.1373C21.3616 22.6758 17.9655 23.3335 13.9405 23.3335ZM20.95 9.69432C20.95 11.0918 20.5332 12.3936 19.8019 13.4758C19.7267 13.5872 19.7936 13.7374 19.9262 13.7606C20.109 13.7921 20.2981 13.8099 20.4903 13.8152C22.4072 13.8656 24.1277 12.6247 24.6031 10.7566C25.3071 7.98167 23.2398 5.49044 20.6073 5.49044C20.3211 5.49044 20.0474 5.52091 19.781 5.57555C19.7445 5.58395 19.7058 5.60077 19.6849 5.63334C19.6598 5.67326 19.6786 5.72685 19.7037 5.76152C20.4945 6.87633 20.95 8.23594 20.95 9.69432ZM24.1246 15.7649C25.4126 16.0181 26.2598 16.535 26.6108 17.2863C26.9075 17.903 26.9075 18.6186 26.6108 19.2343C26.0739 20.3995 24.3429 20.7736 23.6702 20.8702C23.5312 20.8913 23.4195 20.7704 23.4341 20.6307C23.7778 17.4019 21.044 15.871 20.3368 15.519C20.3065 15.5032 20.3002 15.4791 20.3033 15.4643C20.3054 15.4538 20.3179 15.437 20.3409 15.4339C21.8713 15.4055 23.5166 15.6157 24.1246 15.7649ZM7.50996 13.815C7.70218 13.8098 7.89021 13.793 8.07407 13.7604C8.20674 13.7373 8.27359 13.587 8.19838 13.4756C7.46713 12.3934 7.05032 11.0916 7.05032 9.69415C7.05032 8.23577 7.50578 6.87615 8.29657 5.76135C8.32165 5.72668 8.33941 5.67309 8.31538 5.63317C8.29449 5.60164 8.25479 5.58378 8.21927 5.57538C7.95184 5.52074 7.67815 5.49027 7.39192 5.49027C4.75944 5.49027 2.6921 7.9815 3.39723 10.7564C3.87254 12.6246 5.59306 13.8655 7.50996 13.815ZM7.69642 15.4637C7.69955 15.4795 7.69328 15.5026 7.66403 15.5194C6.95577 15.8714 4.22196 17.4023 4.56564 20.6301C4.58027 20.7709 4.46954 20.8906 4.3306 20.8707C3.65785 20.774 1.92689 20.4 1.38995 19.2347C1.09223 18.618 1.09223 17.9035 1.38995 17.2867C1.74095 16.5355 2.5871 16.0185 3.87514 15.7642C4.48416 15.6161 6.12842 15.406 7.65986 15.4343C7.68284 15.4375 7.69433 15.4543 7.69642 15.4637Z" fill="#FFCF00"/>
</g>
</g>
</svg>
